<?xml version="1.0" standalone="no"?>
<!DOCTYPE svg PUBLIC "-//W3C//DTD SVG 20010904//EN"
 "http://www.w3.org/TR/2001/REC-SVG-20010904/DTD/svg10.dtd">
<svg version="1.0" xmlns="http://www.w3.org/2000/svg"
 width="260.000000pt" height="260.000000pt" viewBox="0 0 260.000000 260.000000"
 preserveAspectRatio="xMidYMid meet">
<metadata>
Created by potrace 1.14, written by Peter Selinger 2001-2017
</metadata>
<g transform="translate(0.000000,260.000000) scale(0.100000,-0.100000)"
fill="#000000" stroke="none">
<path d="M338 2322 c-21 -15 -49 -42 -63 -61 l-25 -35 0 -748 c0 -816 -4 -761
54 -826 45 -50 59 -52 492 -52 l404 0 0 -80 0 -80 -145 0 c-127 0 -151 -3
-185 -20 -46 -24 -86 -79 -95 -132 l-7 -38 531 0 c595 0 545 -7 517 73 -18 48
-41 74 -88 98 -31 16 -60 19 -183 19 l-145 0 0 80 0 80 404 0 c433 0 447 2
492 52 58 65 54 10 54 825 l0 747 -26 37 c-14 21 -43 49 -65 63 l-39 26 -922
0 -923 -1 -37 -27z m1102 -476 c0 -6 -69 -316 -76 -341 -3 -11 -7 -27 -8 -35
-1 -8 -6 -25 -10 -36 -3 -12 -9 -35 -11 -50 -4 -24 -39 -183 -60 -271 -5 -20
-12 -23 -60 -23 -30 0 -55 4 -55 8 0 10 70 321 86 385 3 12 7 31 10 42 11 55
65 292 70 308 4 13 17 17 60 17 30 0 54 -2 54 -4z m-590 -261 c-55 -55 -100
-105 -100 -110 0 -5 45 -55 100 -110 l100 -101 -40 -39 -41 -40 -124 126
c-166 167 -166 152 2 321 l127 128 38 -37 38 -37 -100 -101z m1130 -114 c0
-31 -14 -48 -125 -160 l-124 -126 -41 40 -40 39 100 101 c55 55 100 105 100
110 0 6 -45 55 -100 110 l-100 99 37 38 37 38 128 -127 c114 -114 128 -131
128 -162z"/>
</g>
</svg>
